<svg xmlns="http://www.w3.org/2000/svg" width="1600" height="1000" viewBox="0 0 1600 1000" fill="none">
  <defs>
    <linearGradient id="bg" x1="150" y1="80" x2="1460" y2="940" gradientUnits="userSpaceOnUse">
      <stop stop-color="#1F3B2D"/>
      <stop offset="1" stop-color="#0F2118"/>
    </linearGradient>
    <radialGradient id="glowA" cx="0" cy="0" r="1" gradientUnits="userSpaceOnUse" gradientTransform="translate(1280 220) rotate(137.8) scale(520 320)">
      <stop stop-color="#D3B483" stop-opacity="0.62"/>
      <stop offset="1" stop-color="#D3B483" stop-opacity="0"/>
    </radialGradient>
    <radialGradient id="glowB" cx="0" cy="0" r="1" gradientUnits="userSpaceOnUse" gradientTransform="translate(360 840) rotate(-10.2) scale(680 380)">
      <stop stop-color="#5F7A54" stop-opacity="0.56"/>
      <stop offset="1" stop-color="#5F7A54" stop-opacity="0"/>
    </radialGradient>
  </defs>
  <rect width="1600" height="1000" fill="url(#bg)"/>
  <rect width="1600" height="1000" fill="url(#glowA)"/>
  <rect width="1600" height="1000" fill="url(#glowB)"/>
  <path d="M0 828C153 746 252 710 386 704C538 697 628 734 770 799C911 864 1008 893 1178 874C1328 857 1450 796 1600 670V1000H0V828Z" fill="#101E16" fill-opacity="0.72"/>
  <path d="M0 914C133 856 217 829 333 828C471 826 549 859 684 905C810 948 907 966 1051 958C1234 947 1385 863 1600 721V1000H0V914Z" fill="#0A130E" fill-opacity="0.82"/>
</svg>
